<?xml version="1.0" encoding="UTF-8" standalone="no"?>
<!-- Created with Inkscape (http://www.inkscape.org/) -->

<svg
   xmlns:dc="http://purl.org/dc/elements/1.1/"
   xmlns:cc="http://creativecommons.org/ns#"
   xmlns:rdf="http://www.w3.org/1999/02/22-rdf-syntax-ns#"
   xmlns:svg="http://www.w3.org/2000/svg"
   xmlns="http://www.w3.org/2000/svg"
   xmlns:xlink="http://www.w3.org/1999/xlink"
   xmlns:sodipodi="http://sodipodi.sourceforge.net/DTD/sodipodi-0.dtd"
   xmlns:inkscape="http://www.inkscape.org/namespaces/inkscape"
   width="506.7417mm"
   height="143.71536mm"
   viewBox="0 0 1795.5414 509.22766"
   id="svg2"
   version="1.1"
   inkscape:version="0.91 r"
   sodipodi:docname="2.svg"
   inkscape:export-filename="/home/jamie/Pictures/Forays/logo/2_lowres.png"
   inkscape:export-xdpi="40.099323"
   inkscape:export-ydpi="40.099323">
  <defs
     id="defs4">
    <linearGradient
       inkscape:collect="always"
       id="linearGradient4862">
      <stop
         id="stop4866"
         offset="0"
         style="stop-color:#000000;stop-opacity:0;" />
      <stop
         id="stop4864"
         offset="1"
         style="stop-color:#000000;stop-opacity:1;" />
    </linearGradient>
    <linearGradient
       inkscape:collect="always"
       xlink:href="#linearGradient4862"
       id="linearGradient4868"
       x1="670.85571"
       y1="414.72144"
       x2="1771.8771"
       y2="414.72144"
       gradientUnits="userSpaceOnUse"
       gradientTransform="translate(0,-18.06747)" />
  </defs>
  <sodipodi:namedview
     id="base"
     pagecolor="#ffffff"
     bordercolor="#666666"
     borderopacity="1.0"
     inkscape:pageopacity="0.0"
     inkscape:pageshadow="2"
     inkscape:zoom="0.49497475"
     inkscape:cx="1217.7286"
     inkscape:cy="33.705585"
     inkscape:document-units="px"
     inkscape:current-layer="layer1"
     showgrid="false"
     inkscape:snap-grids="true"
     inkscape:window-width="1920"
     inkscape:window-height="1026"
     inkscape:window-x="0"
     inkscape:window-y="0"
     inkscape:window-maximized="1"
     fit-margin-top="15"
     fit-margin-left="15"
     fit-margin-right="15"
     fit-margin-bottom="15"
     showguides="true"
     inkscape:guide-bbox="true">
    <inkscape:grid
       type="xygrid"
       id="grid4766"
       empspacing="4"
       units="cm"
       spacingx="35.433071"
       spacingy="35.433071"
       originx="-29.261862"
       originy="-223.21861" />
  </sodipodi:namedview>
  <metadata
     id="metadata7">
    <rdf:RDF>
      <cc:Work
         rdf:about="">
        <dc:format>image/svg+xml</dc:format>
        <dc:type
           rdf:resource="http://purl.org/dc/dcmitype/StillImage" />
        <dc:title></dc:title>
      </cc:Work>
    </rdf:RDF>
  </metadata>
  <g
     inkscape:label="Layer 1"
     inkscape:groupmode="layer"
     id="layer1"
     transform="translate(-29.261871,-319.91597)">
    <path
       style="color:#000000;font-style:normal;font-variant:normal;font-weight:normal;font-stretch:normal;font-size:medium;line-height:normal;font-family:sans-serif;text-indent:0;text-align:start;text-decoration:none;text-decoration-line:none;text-decoration-style:solid;text-decoration-color:#000000;letter-spacing:normal;word-spacing:normal;text-transform:none;direction:ltr;block-progression:tb;writing-mode:lr-tb;baseline-shift:baseline;text-anchor:start;white-space:normal;clip-rule:nonzero;display:inline;overflow:visible;visibility:visible;opacity:1;isolation:auto;mix-blend-mode:normal;color-interpolation:sRGB;color-interpolation-filters:linearRGB;solid-color:#000000;solid-opacity:1;fill:#000000;fill-opacity:1;fill-rule:evenodd;stroke:none;stroke-width:30;stroke-linecap:square;stroke-linejoin:round;stroke-miterlimit:4;stroke-dasharray:none;stroke-dashoffset:0;stroke-opacity:1;color-rendering:auto;image-rendering:auto;shape-rendering:auto;text-rendering:auto;enable-background:accumulate"
       d="m 1446.8687,540.76805 -4.9253,4.92531 -212.5977,212.59766 -26.6436,26.51732 42.6748,0.0351 5.3395,-5.33956 212.4398,-212.59766 26.1386,-26.13852 z"
       id="path4815"
       inkscape:connector-curvature="0"
       sodipodi:nodetypes="ccccccccc" />
    <path
       style="color:#000000;font-style:normal;font-variant:normal;font-weight:normal;font-stretch:normal;font-size:medium;line-height:normal;font-family:sans-serif;text-indent:0;text-align:start;text-decoration:none;text-decoration-line:none;text-decoration-style:solid;text-decoration-color:#000000;letter-spacing:normal;word-spacing:normal;text-transform:none;direction:ltr;block-progression:tb;writing-mode:lr-tb;baseline-shift:baseline;text-anchor:start;white-space:normal;clip-rule:nonzero;display:inline;overflow:visible;visibility:visible;opacity:1;isolation:auto;mix-blend-mode:normal;color-interpolation:sRGB;color-interpolation-filters:linearRGB;solid-color:#000000;solid-opacity:1;fill:#000000;fill-opacity:1;fill-rule:evenodd;stroke:none;stroke-width:30;stroke-linecap:square;stroke-linejoin:round;stroke-miterlimit:4;stroke-dasharray:none;stroke-dashoffset:0;stroke-opacity:1;color-rendering:auto;image-rendering:auto;shape-rendering:auto;text-rendering:auto;enable-background:accumulate"
       d="m 1245.5702,540.73648 -42.4569,0.0713 26.2324,26.09849 106.2988,106.29883 10.6055,10.60742 21.2148,-21.21484 -10.6074,-10.60547 -106.2988,-106.29883 z"
       id="path4817"
       inkscape:connector-curvature="0"
       sodipodi:nodetypes="ccccccccc" />
    <path
       style="color:#000000;font-style:normal;font-variant:normal;font-weight:normal;font-stretch:normal;font-size:medium;line-height:normal;font-family:sans-serif;text-indent:0;text-align:start;text-decoration:none;text-decoration-line:none;text-decoration-style:solid;text-decoration-color:#000000;letter-spacing:normal;word-spacing:normal;text-transform:none;direction:ltr;block-progression:tb;writing-mode:lr-tb;baseline-shift:baseline;text-anchor:start;white-space:normal;clip-rule:nonzero;display:inline;overflow:visible;visibility:visible;opacity:1;isolation:auto;mix-blend-mode:normal;color-interpolation:sRGB;color-interpolation-filters:linearRGB;solid-color:#000000;solid-opacity:1;fill:#000000;fill-opacity:1;fill-rule:evenodd;stroke:none;stroke-width:30;stroke-linecap:square;stroke-linejoin:round;stroke-miterlimit:4;stroke-dasharray:none;stroke-dashoffset:0;stroke-opacity:1;color-rendering:auto;image-rendering:auto;shape-rendering:auto;text-rendering:auto;enable-background:accumulate"
       d="m 1137.709,541.30859 c -3.8224,0.11294 -7.4574,1.68137 -10.1621,4.38477 l -212.59963,212.59766 -26.54297,26.63421 42.55218,-0.0818 5.20563,-5.33956 186.99019,-186.99024 0,176.38477 0,16.07329 30,0 0,-16.07329 0,-212.59961 c 0,-8.45632 -6.9906,-15.23928 -15.4433,-14.99024 z"
       id="path4834"
       inkscape:connector-curvature="0"
       sodipodi:nodetypes="ccccccccccccc" />
    <path
       style="fill:none;fill-rule:evenodd;stroke:#000000;stroke-width:30;stroke-linecap:square;stroke-linejoin:round;stroke-miterlimit:4;stroke-dasharray:none;stroke-opacity:1"
       d="m 1138.153,662.59842 -93.1672,0"
       id="path4836"
       inkscape:connector-curvature="0"
       sodipodi:nodetypes="cc" />
    <path
       style="color:#000000;font-style:normal;font-variant:normal;font-weight:normal;font-stretch:normal;font-size:medium;line-height:normal;font-family:sans-serif;text-indent:0;text-align:start;text-decoration:none;text-decoration-line:none;text-decoration-style:solid;text-decoration-color:#000000;letter-spacing:normal;word-spacing:normal;text-transform:none;direction:ltr;block-progression:tb;writing-mode:lr-tb;baseline-shift:baseline;text-anchor:start;white-space:normal;clip-rule:nonzero;display:inline;overflow:visible;visibility:visible;opacity:1;isolation:auto;mix-blend-mode:normal;color-interpolation:sRGB;color-interpolation-filters:linearRGB;solid-color:#000000;solid-opacity:1;fill:#000000;fill-opacity:1;fill-rule:evenodd;stroke:none;stroke-width:40;stroke-linecap:square;stroke-linejoin:round;stroke-miterlimit:4;stroke-dasharray:none;stroke-dashoffset:0;stroke-opacity:1;color-rendering:auto;image-rendering:auto;shape-rendering:auto;text-rendering:auto;enable-background:accumulate"
       d="m 193.625,360.06641 c -9.05199,8.4e-4 -17.43286,7.8801 -19.77609,16.62354 l -104.187494,388.83008 -5.175782,19.31836 41.446206,0.031 2.36629,-8.99587 100.67257,-375.80714 268.11914,0 20,0 10.66974,-40 -30.66974,0 z"
       id="path4770"
       inkscape:connector-curvature="0"
       sodipodi:nodetypes="cccccccccccc" />
    <path
       style="color:#000000;font-style:normal;font-variant:normal;font-weight:normal;font-stretch:normal;font-size:medium;line-height:normal;font-family:sans-serif;text-indent:0;text-align:start;text-decoration:none;text-decoration-line:none;text-decoration-style:solid;text-decoration-color:#000000;letter-spacing:normal;word-spacing:normal;text-transform:none;direction:ltr;block-progression:tb;writing-mode:lr-tb;baseline-shift:baseline;text-anchor:start;white-space:normal;clip-rule:nonzero;display:inline;overflow:visible;visibility:visible;opacity:1;isolation:auto;mix-blend-mode:normal;color-interpolation:sRGB;color-interpolation-filters:linearRGB;solid-color:#000000;solid-opacity:1;fill:#000000;fill-opacity:1;fill-rule:evenodd;stroke:none;stroke-width:37;stroke-linecap:square;stroke-linejoin:round;stroke-miterlimit:4;stroke-dasharray:none;stroke-dashoffset:0;stroke-opacity:1;color-rendering:auto;image-rendering:auto;shape-rendering:auto;text-rendering:auto;enable-background:accumulate"
       d="m 142.83203,540.73438 0,37 18.5,0 126.01758,0 13.1967,0 9.97526,-37 -23.17196,0 -126.01758,0 z"
       id="path4772"
       inkscape:connector-curvature="0"
       sodipodi:nodetypes="ccccccccc" />
    <rect
       style="fill:none;fill-opacity:1;stroke:#000000;stroke-width:30.52455711;stroke-linecap:square;stroke-linejoin:round;stroke-miterlimit:4;stroke-dasharray:none;stroke-opacity:1"
       id="rect4774"
       width="212.11546"
       height="221.7282"
       x="535.85339"
       y="575.03473"
       ry="27.716015"
       transform="matrix(1,0,-0.25881904,0.96592583,0,0)" />
    <path
       style="color:#000000;font-style:normal;font-variant:normal;font-weight:normal;font-stretch:normal;font-size:medium;line-height:normal;font-family:sans-serif;text-indent:0;text-align:start;text-decoration:none;text-decoration-line:none;text-decoration-style:solid;text-decoration-color:#000000;letter-spacing:normal;word-spacing:normal;text-transform:none;direction:ltr;block-progression:tb;writing-mode:lr-tb;baseline-shift:baseline;text-anchor:start;white-space:normal;clip-rule:nonzero;display:inline;overflow:visible;visibility:visible;opacity:1;isolation:auto;mix-blend-mode:normal;color-interpolation:sRGB;color-interpolation-filters:linearRGB;solid-color:#000000;solid-opacity:1;fill:#000000;fill-opacity:1;fill-rule:evenodd;stroke:none;stroke-width:30;stroke-linecap:square;stroke-linejoin:round;stroke-miterlimit:4;stroke-dasharray:none;stroke-dashoffset:0;stroke-opacity:1;color-rendering:auto;image-rendering:auto;shape-rendering:auto;text-rendering:auto;enable-background:accumulate"
       d="m 683.33203,541.29883 c -6.78853,7.3e-4 -12.73054,4.56017 -14.48828,11.11719 l -56.96484,212.5996 -5.37836,19.84543 31.10346,0.0409 3.25146,-12.12268 53.98633,-201.48047 165.65625,0 c 6.35826,0 8.53974,1.36456 9.54883,2.18359 1.00908,0.81903 1.60415,1.80555 2.0957,3.92383 0.98309,4.23655 -0.19531,10.44336 -0.19531,10.44336 l -9.49415,35.43359 c 0,0 -1.69691,6.0991 -6.58398,12.46289 -4.88707,6.3638 -11.13698,11.85157 -23.85352,11.85157 l -35.43359,0 c -10.60492,10e-4 -17.86065,10.70562 -13.93359,20.55664 l 42.38281,106.29882 4.16768,10.39807 32.22151,3.4e-4 -8.522,-21.50973 -34.1875,-85.74414 13.30468,0 c 22.71654,0 38.92816,-12.22734 47.64649,-23.58008 8.71832,-11.35274 11.76953,-22.97071 11.76953,-22.9707 l 9.49414,-35.43165 c 0,0 3.56945,-11.51025 0.44141,-24.99023 -1.56402,-6.73999 -5.23973,-14.61088 -12.41602,-20.43555 -7.17629,-5.82467 -17.09486,-8.89062 -28.45312,-8.89062 z"
       id="path4807"
       inkscape:connector-curvature="0"
       sodipodi:nodetypes="cccccccsssccsscccccccssccsssc" />
    <path
       style="color:#000000;font-style:normal;font-variant:normal;font-weight:normal;font-stretch:normal;font-size:medium;line-height:normal;font-family:sans-serif;text-indent:0;text-align:start;text-decoration:none;text-decoration-line:none;text-decoration-style:solid;text-decoration-color:#000000;letter-spacing:normal;word-spacing:normal;text-transform:none;direction:ltr;block-progression:tb;writing-mode:lr-tb;baseline-shift:baseline;text-anchor:start;white-space:normal;clip-rule:nonzero;display:inline;overflow:visible;visibility:visible;opacity:1;isolation:auto;mix-blend-mode:normal;color-interpolation:sRGB;color-interpolation-filters:linearRGB;solid-color:#000000;solid-opacity:1;fill:#000000;fill-opacity:1;fill-rule:evenodd;stroke:none;stroke-width:30;stroke-linecap:square;stroke-linejoin:round;stroke-miterlimit:4;stroke-dasharray:none;stroke-dashoffset:0;stroke-opacity:1;color-rendering:auto;image-rendering:auto;shape-rendering:auto;text-rendering:auto;enable-background:accumulate"
       d="m 1570.1099,544.15597 c 0,0 -11.9313,-0.0374 -24.9551,5.70508 -13.0237,5.74252 -28.5063,18.62306 -34.4609,40.8457 l -9.4941,35.43359 c 0,0 -3.5695,11.51025 -0.4414,24.99024 1.564,6.73999 5.2377,14.61087 12.414,20.43554 7.1763,5.82468 17.0968,8.88868 28.4551,8.88868 l 141.7324,0 c 0,0 5.688,0.4908 9.0293,2.41992 1.6707,0.96456 2.3613,1.66331 2.9277,3.08398 0.5665,1.42068 1.2621,4.44166 -0.5078,11.04688 l -9.4941,35.43359 c 0,0 -1.6969,6.09909 -6.584,12.46289 -4.8871,6.3638 -11.137,11.85352 -23.8535,11.85352 l -141.7324,0 c -6.3583,0 -8.5398,-1.36457 -9.5489,-2.1836 -1.009,-0.81903 -1.6061,-1.80555 -2.0976,-3.92382 -0.9831,-4.23655 0.1953,-10.44336 0.1953,-10.44336 l 3.8828,-14.49024 -31.0767,0.004 -1.7827,6.72042 c 0,0 -3.5694,11.51025 -0.4414,24.99024 1.5641,6.73999 5.2378,14.61087 12.4141,20.43554 7.1763,5.82467 17.0968,8.89063 28.4551,8.89063 l 141.7324,0 c 22.7165,0 38.9282,-12.2293 47.6465,-23.58203 8.7183,-11.35274 11.7695,-22.96875 11.7695,-22.96875 l 9.4942,-35.4336 c 2.9772,-11.11131 2.8034,-21.377 -0.6036,-29.92187 -3.4069,-8.54488 -9.7941,-14.49051 -15.7949,-17.95508 -12.0016,-6.92915 -24.0293,-6.43945 -24.0293,-6.43945 l -141.7324,0 c -6.3583,0 -8.5397,-1.36262 -9.5488,-2.18164 -1.0091,-0.81903 -1.6042,-1.80556 -2.0957,-3.92383 -0.9831,-4.23655 0.1933,-10.44531 0.1933,-10.44531 l 9.4961,-35.43165 c 3.5398,-13.21043 10.5196,-18.04637 17.586,-21.16211 7.0663,-3.11573 12.8515,-3.15429 12.8515,-3.15429 l 141.7324,0 c 6.3583,0 8.5398,1.36457 9.5489,2.18359 1.009,0.81902 1.6041,1.80555 2.0957,3.92383 0.9831,4.23655 -0.1953,10.44336 -0.1953,10.44336 l -3.8809,14.48828 31.1547,0.0632 1.7047,-6.78588 c 0,0 3.5694,-11.51025 0.4414,-24.99023 -1.564,-6.73999 -5.2378,-14.61087 -12.4141,-20.43555 -7.1763,-5.82468 -17.0968,-8.89062 -28.4551,-8.89062 z"
       id="path4838"
       inkscape:connector-curvature="0"
       sodipodi:nodetypes="csccssscccccssscccccccsssscssscsscccscsccccccsssc" />
    <path
       style="fill:none;fill-rule:evenodd;stroke:#000000;stroke-width:30;stroke-linecap:square;stroke-linejoin:round;stroke-miterlimit:4;stroke-dasharray:none;stroke-opacity:1"
       d="m 666.46646,662.59842 130.11553,0"
       id="path4840"
       inkscape:connector-curvature="0"
       sodipodi:nodetypes="cc" />
    <g
       id="g5580"
       transform="translate(4,0)">
      <path
         sodipodi:nodetypes="ccccc"
         inkscape:connector-curvature="0"
         id="path4860"
         d="m 478.94263,361.06638 1292.71087,0 -193.7588,90.80051 c 0,0 -18.8396,-55.36744 -89.7287,-55.36744 z"
         style="fill:url(#linearGradient4868);fill-opacity:1;fill-rule:evenodd;stroke:none;stroke-width:2;stroke-linecap:butt;stroke-linejoin:miter;stroke-miterlimit:4;stroke-dasharray:none;stroke-opacity:1" />
      <path
         sodipodi:nodetypes="cc"
         inkscape:connector-curvature="0"
         id="path5578"
         d="m 1766.3377,362.06648 -1068.39143,0"
         style="fill:none;fill-rule:evenodd;stroke:#000000;stroke-width:2;stroke-linecap:round;stroke-linejoin:miter;stroke-miterlimit:4;stroke-dasharray:none;stroke-opacity:1" />
    </g>
  </g>
</svg>
